<svg xmlns="http://www.w3.org/2000/svg" width="20" height="20" viewBox="0 0 20 20"><path d="M9.0349,2.2639c-.5208.2805-.23,2.0884.1431,1.17a1.0781,1.0781,0,0,1,1.2045-.5548C11.5348,3.0183,9.5976,1.9612,9.0349,2.2639Z" fill="#010101" fill-rule="evenodd"/><path d="M10.6833,16.2731c-1.8177-2.605,2.1275-2.9237,2.2379-8.0237.0759-3.4989-1.7512-2.5747.2035-4.5241-.5559,1.8629,1.7672,2.7112,1.1815,4.9547-.46,1.764,1.1148.4385-1.7077,4.3674A8.0342,8.0342,0,0,0,10.6833,16.2731Z" fill="#010101" fill-rule="evenodd"/><path d="M10.1614,0C4.0143.9551,6.7191,6.53,5.288,7.5225c-1.9024,1.32-2.748,5.9665-2.6941,7.662.0646,2.0241,1.5808-2.1479,2.7118-3.3952C7.4209,9.4562,8.88,10.82,8.8761,9.05c-.0055-2.1514-2.252-1.0559-1.3137-2.3055C9.3683,4.34,4.5642.8553,10.6826,1.5877c2.4866.2975.5343,1.1163,2.28,1.8778.9782.4271.36-1.0572,4.4455-1.1023-1.1267-.8735-1.9069-.5919-4.1581-.9786A4.2666,4.2666,0,0,0,10.1614,0Z" fill="#010101" fill-rule="evenodd"/><path d="M13.494,7.453c2.0828,1.7522,2.452,2.7789,2.1058,4.1062-.147.5644-.2866-.8573-2.8255-1.13A6.3449,6.3449,0,0,0,13.494,7.453Z" fill="#010101" fill-rule="evenodd"/><path d="M7.9529,17.4538c-3.7824-2.21-1.0766,1.9078.4838,2.4895.7962.297,2.7259-.6139.7547-1.7658Z" fill="#010101" fill-rule="evenodd"/><path d="M10.7,16.6045c-4.0224-.3853.1008,1.5526,1.5985,1.4957.764-.0294,1.8151-1.1684-.281-1.3693Z" fill="#010101" fill-rule="evenodd"/></svg>